<svg id="Layer_1" data-name="Layer 1" xmlns="http://www.w3.org/2000/svg" viewBox="0 0 818.693 124.14">
  <g>
    <path d="M15.517,34.916h0a19.4,19.4,0,0,0,19.4,19.4H151.289A34.913,34.913,0,0,1,186.2,89.225h0a34.914,34.914,0,0,1-34.913,34.913H15.517a7.759,7.759,0,0,1-7.759-7.759h0a7.758,7.758,0,0,1,7.759-7.758H151.289a19.4,19.4,0,0,0,19.4-19.4h0a19.4,19.4,0,0,0-19.4-19.4H34.913A34.913,34.913,0,0,1,0,34.916H0A34.913,34.913,0,0,1,34.913,0H170.685a7.758,7.758,0,0,1,7.759,7.758h0a7.759,7.759,0,0,1-7.759,7.759H34.913A19.4,19.4,0,0,0,15.517,34.916Z" fill="#fff"/>
    <path d="M216,34.916h0a19.4,19.4,0,0,0,19.4,19.4H351.775a34.913,34.913,0,0,1,34.913,34.913h0a34.914,34.914,0,0,1-34.913,34.913H216a7.759,7.759,0,0,1-7.758-7.759h0A7.758,7.758,0,0,1,216,108.621H351.775a19.4,19.4,0,0,0,19.4-19.4h0a19.4,19.4,0,0,0-19.4-19.4H235.4a34.913,34.913,0,0,1-34.913-34.913h0A34.913,34.913,0,0,1,235.4,0H371.171a7.758,7.758,0,0,1,7.758,7.758h0a7.758,7.758,0,0,1-7.758,7.759H235.4A19.4,19.4,0,0,0,216,34.916Z" fill="#fff"/>
    <path d="M818.693,116.379h0a7.759,7.759,0,0,1-7.759,7.759H654.621a22.129,22.129,0,0,1-22.13-22.13V7.761A7.758,7.758,0,0,1,640.249,0h0a7.758,7.758,0,0,1,7.758,7.758v94.717a6.144,6.144,0,0,0,6.143,6.143H810.934A7.758,7.758,0,0,1,818.693,116.379Z" fill="#fff"/>
    <path d="M595.207,124.14h-.484a5.907,5.907,0,0,1-5.225-3.108A95.969,95.969,0,0,0,513.322,70.38c-2.843-.265-5.731-.4-8.64-.4a97.309,97.309,0,0,0-9.875.507A95.685,95.685,0,0,0,436.727,98.2c-1.631,1.63-3.218,3.328-4.717,5.091-1.477,1.675-2.888,3.439-4.232,5.246a6.316,6.316,0,0,1-2.05,1.807c-5.07,2.712-10.668-3.218-7.605-8.067a.481.481,0,0,1,.066-.11c7.274-11.065,36.039-47.853,139.349-47.853h9.809c10.69,0,19.683-8.463,19.815-19.132a19.381,19.381,0,0,0-19.4-19.661H424.582a8.025,8.025,0,0,1-8.09-8.023,7.853,7.853,0,0,1,2.271-5.224A7.688,7.688,0,0,1,424.251,0H567.1c19.573,0,35.95,16.024,35.576,35.6a34.952,34.952,0,0,1-1.4,9.153c-5.3,18.05-25.27,27.206-43.03,21.005-16.229-5.666-67.055-9.635-96.525,9.407,7.033-4.544,57.11-24.379,102.737,4.386,11.418,8.773,27.839,18.383,37.67,28.567C607.926,114.111,603.539,124.14,595.207,124.14Z" fill="#fff"/>
    <circle cx="444.641" cy="58.333" r="9.058" fill="#fff"/>
  </g>
</svg>
